<mxfile host="app.diagrams.net" modified="2022-02-08T00:29:01.815Z" agent="5.0 (X11)" etag="HtUVC8UejQV9S15Z-XTO" version="16.5.3" type="github">
  <diagram id="XJV9W_cmDKWi7Rnc3LGd" name="Page-1">
    <mxGraphModel dx="1469" dy="1766" grid="1" gridSize="10" guides="1" tooltips="1" connect="1" arrows="1" fold="1" page="1" pageScale="1" pageWidth="850" pageHeight="1100" math="0" shadow="0">
      <root>
        <mxCell id="0" />
        <mxCell id="1" parent="0" />
        <mxCell id="j10uJciGInbWVbVoU815-26" style="edgeStyle=orthogonalEdgeStyle;rounded=0;orthogonalLoop=1;jettySize=auto;html=1;exitX=0;exitY=0;exitDx=0;exitDy=0;exitPerimeter=0;entryX=0;entryY=0;entryDx=0;entryDy=0;entryPerimeter=0;" parent="1" source="ripQ546PBSJGRs5OGgcQ-14" target="j10uJciGInbWVbVoU815-24" edge="1">
          <mxGeometry relative="1" as="geometry" />
        </mxCell>
        <mxCell id="ripQ546PBSJGRs5OGgcQ-14" value="" style="shape=cube;whiteSpace=wrap;html=1;boundedLbl=1;backgroundOutline=1;darkOpacity=0.05;darkOpacity2=0.1;rotation=90;" parent="1" vertex="1">
          <mxGeometry x="47" y="60" width="120" height="30" as="geometry" />
        </mxCell>
        <mxCell id="j10uJciGInbWVbVoU815-27" style="edgeStyle=orthogonalEdgeStyle;rounded=0;orthogonalLoop=1;jettySize=auto;html=1;exitX=0;exitY=0;exitDx=0;exitDy=0;exitPerimeter=0;entryX=0;entryY=0;entryDx=16.5;entryDy=28.9;entryPerimeter=0;" parent="1" source="ripQ546PBSJGRs5OGgcQ-15" target="j10uJciGInbWVbVoU815-23" edge="1">
          <mxGeometry relative="1" as="geometry">
            <Array as="points">
              <mxPoint x="142" y="10" />
              <mxPoint x="665" y="10" />
            </Array>
          </mxGeometry>
        </mxCell>
        <mxCell id="ripQ546PBSJGRs5OGgcQ-15" value="" style="shape=cube;whiteSpace=wrap;html=1;boundedLbl=1;backgroundOutline=1;darkOpacity=0.05;darkOpacity2=0.1;rotation=90;" parent="1" vertex="1">
          <mxGeometry x="82" y="60" width="90" height="30" as="geometry" />
        </mxCell>
        <mxCell id="j10uJciGInbWVbVoU815-28" style="edgeStyle=orthogonalEdgeStyle;rounded=0;orthogonalLoop=1;jettySize=auto;html=1;exitX=0;exitY=0;exitDx=0;exitDy=0;exitPerimeter=0;entryX=0;entryY=0;entryDx=0;entryDy=12.369999999999997;entryPerimeter=0;" parent="1" source="ripQ546PBSJGRs5OGgcQ-16" target="j10uJciGInbWVbVoU815-20" edge="1">
          <mxGeometry relative="1" as="geometry">
            <Array as="points">
              <mxPoint x="163" y="17" />
              <mxPoint x="602" y="17" />
            </Array>
          </mxGeometry>
        </mxCell>
        <mxCell id="ripQ546PBSJGRs5OGgcQ-16" value="" style="shape=cube;whiteSpace=wrap;html=1;boundedLbl=1;backgroundOutline=1;darkOpacity=0.05;darkOpacity2=0.1;rotation=90;" parent="1" vertex="1">
          <mxGeometry x="113" y="57" width="70" height="30" as="geometry" />
        </mxCell>
        <mxCell id="ripQ546PBSJGRs5OGgcQ-17" value="" style="shape=cube;whiteSpace=wrap;html=1;boundedLbl=1;backgroundOutline=1;darkOpacity=0.05;darkOpacity2=0.1;rotation=90;" parent="1" vertex="1">
          <mxGeometry x="47" y="193" width="120" height="30" as="geometry" />
        </mxCell>
        <mxCell id="ripQ546PBSJGRs5OGgcQ-18" value="" style="shape=cube;whiteSpace=wrap;html=1;boundedLbl=1;backgroundOutline=1;darkOpacity=0.05;darkOpacity2=0.1;rotation=90;" parent="1" vertex="1">
          <mxGeometry x="82" y="193" width="90" height="30" as="geometry" />
        </mxCell>
        <mxCell id="ripQ546PBSJGRs5OGgcQ-19" value="" style="shape=cube;whiteSpace=wrap;html=1;boundedLbl=1;backgroundOutline=1;darkOpacity=0.05;darkOpacity2=0.1;rotation=90;" parent="1" vertex="1">
          <mxGeometry x="113" y="193" width="70" height="30" as="geometry" />
        </mxCell>
        <mxCell id="gHIy9yLXrVZsT-g1AwRH-1" value="" style="shape=cube;whiteSpace=wrap;html=1;boundedLbl=1;backgroundOutline=1;darkOpacity=0.05;darkOpacity2=0.1;rotation=90;" parent="1" vertex="1">
          <mxGeometry x="139.61" y="56.41" width="51.25" height="28.45" as="geometry" />
        </mxCell>
        <mxCell id="gHIy9yLXrVZsT-g1AwRH-2" value="" style="shape=cube;whiteSpace=wrap;html=1;boundedLbl=1;backgroundOutline=1;darkOpacity=0.05;darkOpacity2=0.1;rotation=90;" parent="1" vertex="1">
          <mxGeometry x="139.61" y="193.78" width="51.25" height="28.45" as="geometry" />
        </mxCell>
        <mxCell id="gHIy9yLXrVZsT-g1AwRH-4" value="&lt;b&gt;LEFT IMAGE&lt;/b&gt;" style="rounded=0;whiteSpace=wrap;html=1;rotation=-90;" parent="1" vertex="1">
          <mxGeometry x="-20" y="44.38" width="123" height="61.25" as="geometry" />
        </mxCell>
        <mxCell id="gHIy9yLXrVZsT-g1AwRH-5" value="&lt;b&gt;RIGHT IMAGE&lt;/b&gt;" style="rounded=0;whiteSpace=wrap;html=1;rotation=-90;" parent="1" vertex="1">
          <mxGeometry x="-20" y="177" width="123" height="61.25" as="geometry" />
        </mxCell>
        <mxCell id="gHIy9yLXrVZsT-g1AwRH-6" value="" style="shape=cube;whiteSpace=wrap;html=1;boundedLbl=1;backgroundOutline=1;darkOpacity=0.05;darkOpacity2=0.1;rotation=90;" parent="1" vertex="1">
          <mxGeometry x="171.67" y="105.33" width="65.01" height="56.21" as="geometry" />
        </mxCell>
        <mxCell id="gHIy9yLXrVZsT-g1AwRH-16" value="" style="html=1;shadow=0;dashed=0;align=center;verticalAlign=middle;shape=mxgraph.arrows2.bendArrow;dy=7.21;dx=24.16;notch=0;arrowHead=23.15;rounded=1;rotation=90;" parent="1" vertex="1">
          <mxGeometry x="166" y="72" width="50.99" height="34.21" as="geometry" />
        </mxCell>
        <mxCell id="j10uJciGInbWVbVoU815-2" value="" style="html=1;shadow=0;dashed=0;align=center;verticalAlign=middle;shape=mxgraph.arrows2.bendArrow;dy=7.21;dx=24.16;notch=0;arrowHead=23.15;rounded=1;rotation=-90;flipV=1;" parent="1" vertex="1">
          <mxGeometry x="165.39" y="175.61" width="50.99" height="33" as="geometry" />
        </mxCell>
        <mxCell id="j10uJciGInbWVbVoU815-4" value="" style="shape=cube;whiteSpace=wrap;html=1;boundedLbl=1;backgroundOutline=1;darkOpacity=0.05;darkOpacity2=0.1;rotation=90;size=13;" parent="1" vertex="1">
          <mxGeometry x="215.82" y="111.99" width="51.15" height="41.78" as="geometry" />
        </mxCell>
        <mxCell id="j10uJciGInbWVbVoU815-6" value="" style="shape=cube;whiteSpace=wrap;html=1;boundedLbl=1;backgroundOutline=1;darkOpacity=0.05;darkOpacity2=0.1;rotation=90;size=13;" parent="1" vertex="1">
          <mxGeometry x="254.57" y="112.56" width="42.81" height="37.11" as="geometry" />
        </mxCell>
        <mxCell id="j10uJciGInbWVbVoU815-8" value="" style="shape=cube;whiteSpace=wrap;html=1;boundedLbl=1;backgroundOutline=1;darkOpacity=0.05;darkOpacity2=0.1;rotation=90;size=10;" parent="1" vertex="1">
          <mxGeometry x="304.44" y="99.77" width="29.43" height="62.54" as="geometry" />
        </mxCell>
        <mxCell id="j10uJciGInbWVbVoU815-9" value="" style="shape=cube;whiteSpace=wrap;html=1;boundedLbl=1;backgroundOutline=1;darkOpacity=0.05;darkOpacity2=0.1;rotation=90;size=13;" parent="1" vertex="1">
          <mxGeometry x="343.99" y="111.14" width="42.81" height="43.95" as="geometry" />
        </mxCell>
        <mxCell id="j10uJciGInbWVbVoU815-12" value="" style="shape=cube;whiteSpace=wrap;html=1;boundedLbl=1;backgroundOutline=1;darkOpacity=0.05;darkOpacity2=0.1;rotation=90;size=13;" parent="1" vertex="1">
          <mxGeometry x="379.99" y="111.14" width="42.81" height="43.95" as="geometry" />
        </mxCell>
        <mxCell id="j10uJciGInbWVbVoU815-14" value="" style="shape=cube;whiteSpace=wrap;html=1;boundedLbl=1;backgroundOutline=1;darkOpacity=0.05;darkOpacity2=0.1;rotation=90;size=13;" parent="1" vertex="1">
          <mxGeometry x="410.82" y="111.99" width="51.15" height="41.78" as="geometry" />
        </mxCell>
        <mxCell id="j10uJciGInbWVbVoU815-15" value="" style="shape=cube;whiteSpace=wrap;html=1;boundedLbl=1;backgroundOutline=1;darkOpacity=0.05;darkOpacity2=0.1;rotation=90;size=13;" parent="1" vertex="1">
          <mxGeometry x="445.82" y="111.99" width="51.15" height="41.78" as="geometry" />
        </mxCell>
        <mxCell id="j10uJciGInbWVbVoU815-17" value="" style="shape=cube;whiteSpace=wrap;html=1;boundedLbl=1;backgroundOutline=1;darkOpacity=0.05;darkOpacity2=0.1;rotation=90;" parent="1" vertex="1">
          <mxGeometry x="468.34" y="117.67" width="65.01" height="31.54" as="geometry" />
        </mxCell>
        <mxCell id="j10uJciGInbWVbVoU815-18" value="" style="shape=cube;whiteSpace=wrap;html=1;boundedLbl=1;backgroundOutline=1;darkOpacity=0.05;darkOpacity2=0.1;rotation=90;" parent="1" vertex="1">
          <mxGeometry x="499.66999999999996" y="105.33" width="65.01" height="56.21" as="geometry" />
        </mxCell>
        <mxCell id="j10uJciGInbWVbVoU815-19" value="" style="shape=cube;whiteSpace=wrap;html=1;boundedLbl=1;backgroundOutline=1;darkOpacity=0.05;darkOpacity2=0.1;rotation=90;" parent="1" vertex="1">
          <mxGeometry x="513.38" y="118.84" width="99.4" height="32.37" as="geometry" />
        </mxCell>
        <mxCell id="j10uJciGInbWVbVoU815-20" value="" style="shape=cube;whiteSpace=wrap;html=1;boundedLbl=1;backgroundOutline=1;darkOpacity=0.05;darkOpacity2=0.1;rotation=90;" parent="1" vertex="1">
          <mxGeometry x="532.38" y="118.84" width="99.4" height="32.37" as="geometry" />
        </mxCell>
        <mxCell id="j10uJciGInbWVbVoU815-21" value="" style="shape=cube;whiteSpace=wrap;html=1;boundedLbl=1;backgroundOutline=1;darkOpacity=0.05;darkOpacity2=0.1;rotation=90;size=33;" parent="1" vertex="1">
          <mxGeometry x="538.67" y="109.91" width="140.74" height="45.4" as="geometry" />
        </mxCell>
        <mxCell id="j10uJciGInbWVbVoU815-22" value="" style="shape=cube;whiteSpace=wrap;html=1;boundedLbl=1;backgroundOutline=1;darkOpacity=0.05;darkOpacity2=0.1;rotation=90;size=33;" parent="1" vertex="1">
          <mxGeometry x="558.67" y="109.91" width="140.74" height="45.4" as="geometry" />
        </mxCell>
        <mxCell id="j10uJciGInbWVbVoU815-23" value="" style="shape=cube;whiteSpace=wrap;html=1;boundedLbl=1;backgroundOutline=1;darkOpacity=0.05;darkOpacity2=0.1;rotation=90;size=33;" parent="1" vertex="1">
          <mxGeometry x="568.05" y="109.29" width="174.63" height="45.4" as="geometry" />
        </mxCell>
        <mxCell id="j10uJciGInbWVbVoU815-24" value="" style="shape=cube;whiteSpace=wrap;html=1;boundedLbl=1;backgroundOutline=1;darkOpacity=0.05;darkOpacity2=0.1;rotation=90;size=33;" parent="1" vertex="1">
          <mxGeometry x="589.05" y="109.29" width="174.63" height="45.4" as="geometry" />
        </mxCell>
        <mxCell id="qjHNvClsbBAqryhqXB2U-1" value="" style="shape=cube;whiteSpace=wrap;html=1;boundedLbl=1;backgroundOutline=1;darkOpacity=0.05;darkOpacity2=0.1;rotation=90;size=30;" vertex="1" parent="1">
          <mxGeometry x="38.5" y="373.75" width="151.25" height="39.75" as="geometry" />
        </mxCell>
        <mxCell id="qjHNvClsbBAqryhqXB2U-2" value="" style="shape=cube;whiteSpace=wrap;html=1;boundedLbl=1;backgroundOutline=1;darkOpacity=0.05;darkOpacity2=0.1;rotation=90;size=24;" vertex="1" parent="1">
          <mxGeometry x="74" y="378" width="120.5" height="34.5" as="geometry" />
        </mxCell>
        <mxCell id="qjHNvClsbBAqryhqXB2U-3" value="" style="shape=cube;whiteSpace=wrap;html=1;boundedLbl=1;backgroundOutline=1;darkOpacity=0.05;darkOpacity2=0.1;rotation=90;" vertex="1" parent="1">
          <mxGeometry x="109" y="380.25" width="90" height="30" as="geometry" />
        </mxCell>
        <mxCell id="qjHNvClsbBAqryhqXB2U-4" value="" style="shape=cube;whiteSpace=wrap;html=1;boundedLbl=1;backgroundOutline=1;darkOpacity=0.05;darkOpacity2=0.1;rotation=90;size=13;" vertex="1" parent="1">
          <mxGeometry x="148.08" y="374.29" width="63" height="41.78" as="geometry" />
        </mxCell>
        <mxCell id="qjHNvClsbBAqryhqXB2U-5" value="" style="shape=cube;whiteSpace=wrap;html=1;boundedLbl=1;backgroundOutline=1;darkOpacity=0.05;darkOpacity2=0.1;rotation=90;size=13;" vertex="1" parent="1">
          <mxGeometry x="191.67" y="372.73" width="51.15" height="41.78" as="geometry" />
        </mxCell>
        <mxCell id="qjHNvClsbBAqryhqXB2U-6" value="" style="shape=cube;whiteSpace=wrap;html=1;boundedLbl=1;backgroundOutline=1;darkOpacity=0.05;darkOpacity2=0.1;rotation=90;size=13;" vertex="1" parent="1">
          <mxGeometry x="230.57" y="372.56" width="42.81" height="37.11" as="geometry" />
        </mxCell>
        <mxCell id="qjHNvClsbBAqryhqXB2U-7" value="" style="shape=cube;whiteSpace=wrap;html=1;boundedLbl=1;backgroundOutline=1;darkOpacity=0.05;darkOpacity2=0.1;rotation=90;size=10;" vertex="1" parent="1">
          <mxGeometry x="281.57" y="358.84" width="29.43" height="62.54" as="geometry" />
        </mxCell>
        <mxCell id="qjHNvClsbBAqryhqXB2U-8" value="&lt;b&gt;RIGHT IMAGE&lt;/b&gt;" style="rounded=0;whiteSpace=wrap;html=1;rotation=-90;" vertex="1" parent="1">
          <mxGeometry x="-19" y="372.56" width="123" height="61.25" as="geometry" />
        </mxCell>
        <mxCell id="qjHNvClsbBAqryhqXB2U-9" value="" style="shape=cube;whiteSpace=wrap;html=1;boundedLbl=1;backgroundOutline=1;darkOpacity=0.05;darkOpacity2=0.1;rotation=90;size=13;" vertex="1" parent="1">
          <mxGeometry x="319.57" y="372.56" width="42.81" height="37.11" as="geometry" />
        </mxCell>
        <mxCell id="qjHNvClsbBAqryhqXB2U-10" value="" style="shape=cube;whiteSpace=wrap;html=1;boundedLbl=1;backgroundOutline=1;darkOpacity=0.05;darkOpacity2=0.1;rotation=90;size=13;" vertex="1" parent="1">
          <mxGeometry x="352.57" y="372.56" width="42.81" height="37.11" as="geometry" />
        </mxCell>
        <mxCell id="qjHNvClsbBAqryhqXB2U-12" value="" style="shape=cube;whiteSpace=wrap;html=1;boundedLbl=1;backgroundOutline=1;darkOpacity=0.05;darkOpacity2=0.1;rotation=90;size=13;" vertex="1" parent="1">
          <mxGeometry x="381.99" y="370.89000000000004" width="51.15" height="41.78" as="geometry" />
        </mxCell>
        <mxCell id="qjHNvClsbBAqryhqXB2U-13" value="" style="shape=cube;whiteSpace=wrap;html=1;boundedLbl=1;backgroundOutline=1;darkOpacity=0.05;darkOpacity2=0.1;rotation=90;size=13;" vertex="1" parent="1">
          <mxGeometry x="417.99" y="369.89000000000004" width="51.15" height="41.78" as="geometry" />
        </mxCell>
        <mxCell id="qjHNvClsbBAqryhqXB2U-14" value="" style="shape=cube;whiteSpace=wrap;html=1;boundedLbl=1;backgroundOutline=1;darkOpacity=0.05;darkOpacity2=0.1;rotation=90;size=13;" vertex="1" parent="1">
          <mxGeometry x="448.08000000000004" y="371.29" width="63" height="41.78" as="geometry" />
        </mxCell>
        <mxCell id="qjHNvClsbBAqryhqXB2U-15" value="" style="shape=cube;whiteSpace=wrap;html=1;boundedLbl=1;backgroundOutline=1;darkOpacity=0.05;darkOpacity2=0.1;rotation=90;size=13;" vertex="1" parent="1">
          <mxGeometry x="484.08000000000004" y="371.29" width="63" height="41.78" as="geometry" />
        </mxCell>
        <mxCell id="qjHNvClsbBAqryhqXB2U-16" value="" style="shape=cube;whiteSpace=wrap;html=1;boundedLbl=1;backgroundOutline=1;darkOpacity=0.05;darkOpacity2=0.1;rotation=90;" vertex="1" parent="1">
          <mxGeometry x="501" y="378.25" width="90" height="30" as="geometry" />
        </mxCell>
        <mxCell id="qjHNvClsbBAqryhqXB2U-17" value="" style="shape=cube;whiteSpace=wrap;html=1;boundedLbl=1;backgroundOutline=1;darkOpacity=0.05;darkOpacity2=0.1;rotation=90;" vertex="1" parent="1">
          <mxGeometry x="519" y="378.25" width="90" height="30" as="geometry" />
        </mxCell>
        <mxCell id="qjHNvClsbBAqryhqXB2U-18" value="" style="shape=cube;whiteSpace=wrap;html=1;boundedLbl=1;backgroundOutline=1;darkOpacity=0.05;darkOpacity2=0.1;rotation=90;size=24;" vertex="1" parent="1">
          <mxGeometry x="528" y="376" width="120.5" height="34.5" as="geometry" />
        </mxCell>
        <mxCell id="qjHNvClsbBAqryhqXB2U-19" value="" style="shape=cube;whiteSpace=wrap;html=1;boundedLbl=1;backgroundOutline=1;darkOpacity=0.05;darkOpacity2=0.1;rotation=90;size=24;" vertex="1" parent="1">
          <mxGeometry x="546" y="376" width="120.5" height="34.5" as="geometry" />
        </mxCell>
        <mxCell id="qjHNvClsbBAqryhqXB2U-20" value="" style="shape=cube;whiteSpace=wrap;html=1;boundedLbl=1;backgroundOutline=1;darkOpacity=0.05;darkOpacity2=0.1;rotation=90;size=30;" vertex="1" parent="1">
          <mxGeometry x="558.5" y="371.75" width="151.25" height="39.75" as="geometry" />
        </mxCell>
        <mxCell id="qjHNvClsbBAqryhqXB2U-21" value="" style="shape=cube;whiteSpace=wrap;html=1;boundedLbl=1;backgroundOutline=1;darkOpacity=0.05;darkOpacity2=0.1;rotation=90;size=30;" vertex="1" parent="1">
          <mxGeometry x="577.5" y="371.75" width="151.25" height="39.75" as="geometry" />
        </mxCell>
      </root>
    </mxGraphModel>
  </diagram>
</mxfile>
